<svg id="uv_region" xmlns="http://www.w3.org/2000/svg" viewBox="0 0 9795.6 4539.6"><defs><style>.cls-1,.cls-10,.cls-11,.cls-12,.cls-13,.cls-14,.cls-2,.cls-3,.cls-4,.cls-5,.cls-6,.cls-7,.cls-8,.cls-9{fill:none;stroke-miterlimit:10;}.cls-1{stroke:#000;}.cls-10,.cls-11,.cls-12,.cls-13,.cls-14,.cls-2,.cls-3,.cls-4,.cls-5,.cls-6,.cls-7,.cls-8,.cls-9{stroke:#0a0;}.cls-3{stroke-dasharray:23.36 16.68;}.cls-4{stroke-dasharray:23.64 16.88;}.cls-5{stroke-dasharray:23.33 16.67;}.cls-6{stroke-dasharray:23.64 16.88;}.cls-7{stroke-dasharray:23.64 16.88;}.cls-8{stroke-dasharray:23.64 16.88;}.cls-9{stroke-dasharray:23.64 16.88;}.cls-10{stroke-dasharray:23.64 16.88;}.cls-11{stroke-dasharray:23.55 16.82;}.cls-12{stroke-dasharray:23.41 16.72;}.cls-13{stroke-dasharray:23.55 16.82;}.cls-14{stroke-dasharray:23.41 16.72;}</style></defs><rect id="trim_path" class="cls-1" x="4924.72" y="618.26" width="510.23" height="3302.36"/><g id="safe_path"><polyline class="cls-2" points="5309.84 807.97 5321.56 807.97 5321.56 819.69"/><line class="cls-3" x1="5321.57" y1="836.37" x2="5321.57" y2="3710.85"/><polyline class="cls-2" points="5321.56 3719.19 5321.56 3730.91 5309.84 3730.91"/><line class="cls-4" x1="5292.96" y1="3730.91" x2="5058.26" y2="3730.91"/><polyline class="cls-2" points="5049.82 3730.91 5038.1 3730.91 5038.1 3719.19"/><line class="cls-3" x1="5038.1" y1="3702.5" x2="5038.1" y2="828.03"/><polyline class="cls-2" points="5038.1 819.69 5038.1 807.97 5049.82 807.97"/><line class="cls-4" x1="5066.71" y1="807.97" x2="5301.4" y2="807.97"/></g><rect id="trim_path-2" data-name="trim_path" class="cls-1" x="618.93" y="54.11" width="4251.78" height="510.24"/><g id="safe_path-2" data-name="safe_path"><polyline class="cls-2" points="4684.81 439.24 4684.81 450.96 4673.09 450.96"/><line class="cls-5" x1="4656.42" y1="450.96" x2="824.89" y2="450.96"/><polyline class="cls-2" points="816.56 450.96 804.84 450.96 804.84 439.24"/><line class="cls-6" x1="804.84" y1="422.35" x2="804.84" y2="187.66"/><polyline class="cls-2" points="804.84 179.22 804.84 167.5 816.56 167.5"/><line class="cls-5" x1="833.23" y1="167.49" x2="4664.76" y2="167.49"/><polyline class="cls-2" points="4673.09 167.49 4684.81 167.49 4684.81 179.22"/><line class="cls-7" x1="4684.81" y1="196.1" x2="4684.81" y2="430.8"/></g><rect id="trim_path-3" data-name="trim_path" class="cls-1" x="618.93" y="3975.26" width="4251.78" height="510.23"/><g id="safe_path-3" data-name="safe_path"><polyline class="cls-2" points="4684.81 4360.39 4684.81 4372.11 4673.09 4372.11"/><line class="cls-5" x1="4656.42" y1="4372.11" x2="824.89" y2="4372.11"/><polyline class="cls-2" points="816.56 4372.11 804.84 4372.11 804.84 4360.39"/><line class="cls-8" x1="804.84" y1="4343.5" x2="804.84" y2="4108.81"/><polyline class="cls-2" points="804.84 4100.36 804.84 4088.64 816.56 4088.64"/><line class="cls-5" x1="833.23" y1="4088.64" x2="4664.76" y2="4088.64"/><polyline class="cls-2" points="4673.09 4088.64 4684.81 4088.64 4684.81 4100.36"/><line class="cls-4" x1="4684.81" y1="4117.25" x2="4684.81" y2="4351.94"/></g><rect id="trim_path-4" data-name="trim_path" class="cls-1" x="54.33" y="618.98" width="510.24" height="3302.36"/><g id="safe_path-4" data-name="safe_path"><polyline class="cls-2" points="439.46 808.69 451.18 808.69 451.18 820.41"/><line class="cls-3" x1="451.18" y1="837.09" x2="451.18" y2="3711.57"/><polyline class="cls-2" points="451.18 3719.91 451.18 3731.63 439.46 3731.63"/><line class="cls-9" x1="422.57" y1="3731.63" x2="187.88" y2="3731.63"/><polyline class="cls-2" points="179.44 3731.63 167.71 3731.63 167.71 3719.91"/><line class="cls-3" x1="167.71" y1="3703.23" x2="167.71" y2="828.75"/><polyline class="cls-2" points="167.71 820.41 167.71 808.69 179.43 808.69"/><line class="cls-10" x1="196.32" y1="808.69" x2="431.01" y2="808.69"/></g><g id="safe_path-5" data-name="safe_path"><polyline class="cls-2" points="4743.25 3802.92 4743.25 3814.64 4731.53 3814.64"/><line class="cls-11" x1="4714.71" y1="3814.64" x2="766.54" y2="3814.64"/><polyline class="cls-2" points="758.13 3814.64 746.4 3814.64 746.4 3802.92"/><line class="cls-12" x1="746.4" y1="3786.2" x2="746.4" y2="744.96"/><polyline class="cls-2" points="746.4 736.6 746.4 724.88 758.13 724.88"/><line class="cls-11" x1="774.95" y1="724.88" x2="4723.12" y2="724.88"/><polyline class="cls-2" points="4731.53 724.88 4743.25 724.88 4743.25 736.6"/><line class="cls-12" x1="4743.25" y1="753.32" x2="4743.25" y2="3794.56"/></g><rect id="trim_path-5" data-name="trim_path" class="cls-1" x="618.84" y="618.58" width="4251.97" height="3302.36"/><g id="safe_path-6" data-name="safe_path"><polyline class="cls-2" points="9613.91 3802.92 9613.91 3814.64 9602.19 3814.64"/><line class="cls-13" x1="9585.37" y1="3814.64" x2="5637.2" y2="3814.64"/><polyline class="cls-2" points="5628.79 3814.64 5617.07 3814.64 5617.07 3802.92"/><line class="cls-14" x1="5617.07" y1="3786.2" x2="5617.07" y2="744.96"/><polyline class="cls-2" points="5617.07 736.6 5617.07 724.88 5628.79 724.88"/><line class="cls-13" x1="5645.61" y1="724.88" x2="9593.78" y2="724.88"/><polyline class="cls-2" points="9602.19 724.88 9613.91 724.88 9613.91 736.6"/><line class="cls-14" x1="9613.91" y1="753.32" x2="9613.91" y2="3794.56"/></g><rect id="trim_path-6" data-name="trim_path" class="cls-1" x="5489.51" y="618.58" width="4251.97" height="3302.36"/></svg>