<?xml version="1.0" encoding="utf-8"?>
<!-- Generator: Adobe Illustrator 24.2.1, SVG Export Plug-In . SVG Version: 6.00 Build 0)  -->
<svg version="1.1" xmlns="http://www.w3.org/2000/svg" xmlns:xlink="http://www.w3.org/1999/xlink" x="0px" y="0px"
	 viewBox="0 0 8192 4539.6" style="enable-background:new 0 0 8192 4539.6;" xml:space="preserve">
<style type="text/css">
	.st0{fill:none;stroke:#00AA00;stroke-miterlimit:8.3629;}
	.st1{fill:none;stroke:#00AA00;stroke-miterlimit:8.3629;stroke-dasharray:19.5107,13.941;}
	.st2{fill:none;stroke:#00AA00;stroke-miterlimit:8.3629;stroke-dasharray:19.77,14.1166;}
	.st3{fill:none;stroke:#00AA00;stroke-miterlimit:8.3629;stroke-dasharray:19.6947,14.0665;}
	.st4{fill:none;stroke:#00AA00;stroke-miterlimit:8.3629;stroke-dasharray:19.5776,13.9828;}
	.st5{fill:none;stroke:#00AA00;stroke-miterlimit:8.3629;stroke-dasharray:19.5358,13.9494;}
	.st6{fill:none;stroke:#000000;stroke-miterlimit:8.3629;}
</style>
<g id="safe_path_6_">
	<g id="safe_path-3">
		<polyline class="st0" points="3917.9,4018.1 3917.9,4027.9 3908.1,4027.9 		"/>
		<line class="st1" x1="3894.1" y1="4027.9" x2="689.9" y2="4027.9"/>
		<polyline class="st0" points="682.9,4027.9 673.1,4027.9 673.1,4018.1 		"/>
		<line class="st2" x1="673.1" y1="4004" x2="673.1" y2="3807.8"/>
		<polyline class="st0" points="673.1,3800.7 673.1,3790.9 682.9,3790.9 		"/>
		<line class="st1" x1="696.8" y1="3790.9" x2="3901.1" y2="3790.9"/>
		<polyline class="st0" points="3908.1,3790.9 3917.9,3790.9 3917.9,3800.7 		"/>
		<line class="st2" x1="3917.9" y1="3814.8" x2="3917.9" y2="4011.1"/>
	</g>
</g>
<g id="safe_path_5_">
	<g id="safe_path-6">
		<polyline class="st0" points="8040.1,3551.9 8040.1,3561.7 8030.3,3561.7 		"/>
		<line class="st3" x1="8016.2" y1="3561.7" x2="4714.4" y2="3561.7"/>
		<polyline class="st0" points="4707.3,3561.7 4697.5,3561.7 4697.5,3551.9 		"/>
		<line class="st4" x1="4697.5" y1="3538" x2="4697.5" y2="994.6"/>
		<polyline class="st0" points="4697.5,987.6 4697.5,977.8 4707.3,977.8 		"/>
		<line class="st3" x1="4721.4" y1="977.8" x2="8023.2" y2="977.8"/>
		<polyline class="st0" points="8030.3,977.8 8040.1,977.8 8040.1,987.6 		"/>
		<line class="st4" x1="8040.1" y1="1001.6" x2="8040.1" y2="3544.9"/>
	</g>
</g>
<g id="safe_path_4_">
	<g id="safe_path">
		<polyline class="st0" points="4440.6,1047.3 4450.4,1047.3 4450.4,1057.1 		"/>
		<line class="st5" x1="4450.4" y1="1071" x2="4450.4" y2="3474.9"/>
		<polyline class="st0" points="4450.4,3481.9 4450.4,3491.7 4440.6,3491.7 		"/>
		<line class="st2" x1="4426.5" y1="3491.7" x2="4230.2" y2="3491.7"/>
		<polyline class="st0" points="4223.1,3491.7 4213.3,3491.7 4213.3,3481.9 		"/>
		<line class="st5" x1="4213.3" y1="3468" x2="4213.3" y2="1064.1"/>
		<polyline class="st0" points="4213.3,1057.1 4213.3,1047.3 4223.1,1047.3 		"/>
		<line class="st2" x1="4237.3" y1="1047.3" x2="4433.5" y2="1047.3"/>
	</g>
</g>
<g id="safe_path_3_">
	<g id="safe_path-4">
		<polyline class="st0" points="367.5,1047.9 377.3,1047.9 377.3,1057.7 		"/>
		<line class="st5" x1="377.3" y1="1071.6" x2="377.3" y2="3475.5"/>
		<polyline class="st0" points="377.3,3482.5 377.3,3492.3 367.5,3492.3 		"/>
		<line class="st2" x1="353.4" y1="3492.3" x2="157.1" y2="3492.3"/>
		<polyline class="st0" points="150.1,3492.3 140.3,3492.3 140.3,3482.5 		"/>
		<line class="st5" x1="140.3" y1="3468.6" x2="140.3" y2="1064.7"/>
		<polyline class="st0" points="140.3,1057.7 140.3,1047.9 150.1,1047.9 		"/>
		<line class="st2" x1="164.2" y1="1047.9" x2="360.5" y2="1047.9"/>
	</g>
</g>
<g id="safe_path_2_">
	<g id="safe_path-5">
		<polyline class="st0" points="3966.8,3551.9 3966.8,3561.7 3956.9,3561.7 		"/>
		<line class="st3" x1="3942.9" y1="3561.7" x2="641.1" y2="3561.7"/>
		<polyline class="st0" points="634,3561.7 624.2,3561.7 624.2,3551.9 		"/>
		<line class="st4" x1="624.2" y1="3538" x2="624.2" y2="994.6"/>
		<polyline class="st0" points="624.2,987.6 624.2,977.8 634,977.8 		"/>
		<line class="st3" x1="648.1" y1="977.8" x2="3949.9" y2="977.8"/>
		<polyline class="st0" points="3956.9,977.8 3966.8,977.8 3966.8,987.6 		"/>
		<line class="st4" x1="3966.8" y1="1001.6" x2="3966.8" y2="3544.9"/>
	</g>
</g>
<g id="safe_path_1_">
	<g id="safe_path-2_1_">
		<polyline class="st0" points="3917.9,738.9 3917.9,748.7 3908.1,748.7 		"/>
		<line class="st1" x1="3894.1" y1="748.7" x2="689.9" y2="748.7"/>
		<polyline class="st0" points="682.9,748.7 673.1,748.7 673.1,738.9 		"/>
		<line class="st2" x1="673.1" y1="724.8" x2="673.1" y2="528.5"/>
		<polyline class="st0" points="673.1,521.5 673.1,511.7 682.9,511.7 		"/>
		<line class="st1" x1="696.8" y1="511.7" x2="3901.1" y2="511.7"/>
		<polyline class="st0" points="3908.1,511.7 3917.9,511.7 3917.9,521.5 		"/>
		<line class="st2" x1="3917.9" y1="535.6" x2="3917.9" y2="731.9"/>
	</g>
</g>
<g id="trim_path_8_">
	<rect id="trim_path-5_2_" x="517.5" y="888.9" class="st6" width="3555.9" height="2761.7"/>
</g>
<g id="trim_path_6_">
	<rect id="trim_path-6_1_" x="4590.8" y="888.9" class="st6" width="3555.9" height="2761.7"/>
</g>
<g id="trim_path_5_">
	<rect id="trim_path_4_" x="4118.5" y="888.6" class="st6" width="426.7" height="2761.7"/>
</g>
<g id="trim_path_3_">
	<rect id="trim_path-3_1_" x="517.6" y="3696.1" class="st6" width="3555.7" height="426.7"/>
</g>
<g id="trim_path_2_">
	<rect id="trim_path-4_1_" x="45.4" y="889.2" class="st6" width="426.7" height="2761.7"/>
</g>
<g id="trim_path_1_">
	<rect id="trim_path-2_1_" x="517.6" y="416.8" class="st6" width="3555.7" height="426.7"/>
</g>
</svg>
