<?xml version="1.0" encoding="utf-8"?>
<!-- Generator: Adobe Illustrator 24.2.1, SVG Export Plug-In . SVG Version: 6.00 Build 0)  -->
<svg version="1.1" id="trim_path_3_" xmlns="http://www.w3.org/2000/svg" xmlns:xlink="http://www.w3.org/1999/xlink" x="0px"
	 y="0px" viewBox="0 0 5487.6 4061.4" style="enable-background:new 0 0 5487.6 4061.4;" xml:space="preserve">
<style type="text/css">
	.st0{fill:none;stroke:#000000;stroke-miterlimit:14.3593;}
	.st1{fill:none;stroke:#00AA00;stroke-miterlimit:22.9256;}
	.st2{fill:none;stroke:#00AA00;stroke-miterlimit:22.9256;stroke-dasharray:20.0996,14.3567;}
	.st3{fill:none;stroke:#00AA00;stroke-miterlimit:22.9256;stroke-dasharray:20.1123,14.3659;}
	.st4{fill:none;stroke:#00AA00;stroke-miterlimit:22.9256;stroke-dasharray:20.2214,14.4437;}
	.st5{fill:none;stroke:#00AA00;stroke-miterlimit:22.9256;stroke-dasharray:20.167,14.4049;}
	.st6{fill:none;stroke:#00AA00;stroke-miterlimit:22.9256;stroke-dasharray:19.9747,14.2675;}
</style>
<polygon id="trim_path_2_" class="st0" points="2744.3,3360.9 45.4,3360.9 45.4,4017.8 5442.7,4017.8 5442.7,3360.9 "/>
<path id="trim_path" class="st0" d="M470.2,2870.8L44.9,3293l5397.4,0.2c-286.8-245.7-972.1-1002-972.1-1002
	c-189.1-208.9-492.3-557.9-736.1-866c-267.8-338.4-457-627.5-457-627.5L2746.4,48.6L2210,797.7l-221,303.6
	c-385.6,536.3-1120.3,1368-1120.3,1368L470.2,2870.8z"/>
<g id="safe_path">
	<g>
		<path class="st1" d="M5195.2,3202.4l10.1,0c-2.5-2.2-5-4.4-7.6-6.7"/>
		<path class="st2" d="M5187,3186.2c-271.3-243-868.3-912.8-868.3-912.8c-172.5-193.7-449-517.2-671.3-802.9
			c-244.2-313.7-416.8-581.7-416.8-581.7l-474.1-680.4"/>
		<polyline class="st1" points="2752.5,202.6 2746.7,194.3 2740.9,202.6 		"/>
		<path class="st3" d="M2732.6,214.3l-475.1,674.5l-201.6,281.4c-351.7,497.3-1021.7,1268.3-1021.7,1268.3l-363.4,372.3
			l-375.7,379.1"/>
		<polyline class="st1" points="290,3195 282.9,3202.2 293,3202.2 		"/>
		<polyline class="st4" points="307.4,3202.2 2744.6,3202.3 5188,3202.4 		"/>
	</g>
</g>
<g id="safe_path_1_">
	<g>
		<polyline class="st1" points="5337,3459.7 5337,3449.6 5326.9,3449.6 		"/>
		<line class="st5" x1="5312.5" y1="3449.6" x2="168.5" y2="3449.6"/>
		<polyline class="st1" points="161.3,3449.6 151.2,3449.6 151.2,3459.7 		"/>
		<line class="st6" x1="151.2" y1="3474" x2="151.2" y2="3912"/>
		<polyline class="st1" points="151.2,3919.1 151.2,3929.2 161.3,3929.2 		"/>
		<line class="st5" x1="175.7" y1="3929.2" x2="5319.7" y2="3929.2"/>
		<polyline class="st1" points="5326.9,3929.2 5337,3929.2 5337,3919.1 		"/>
		<line class="st6" x1="5337" y1="3904.8" x2="5337" y2="3466.8"/>
	</g>
</g>
</svg>
