<?xml version="1.0" encoding="utf-8"?>
<!-- Generator: Adobe Illustrator 24.2.1, SVG Export Plug-In . SVG Version: 6.00 Build 0)  -->
<svg version="1.1" id="trim_path_3" xmlns="http://www.w3.org/2000/svg" xmlns:xlink="http://www.w3.org/1999/xlink" x="0px"
	 y="0px" viewBox="0 0 5487.6 4061.4" style="enable-background:new 0 0 5487.6 4061.4;" xml:space="preserve">
<style type="text/css">
	.st0{fill:none;stroke:#000000;stroke-miterlimit:14.3593;}
	.st1{fill:none;stroke:#00AA00;stroke-miterlimit:22.9256;}
	.st2{fill:none;stroke:#00AA00;stroke-miterlimit:22.9256;stroke-dasharray:19.7586,14.1132;}
	.st3{fill:none;stroke:#00AA00;stroke-miterlimit:22.9256;stroke-dasharray:20.1827,14.4161;}
	.st4{fill:none;stroke:#00AA00;stroke-miterlimit:22.9256;stroke-dasharray:19.7614,14.1152;}
	.st5{fill:none;stroke:#00AA00;stroke-miterlimit:22.9256;stroke-dasharray:19.8025,14.1445;}
	.st6{fill:none;stroke:#00AA00;stroke-miterlimit:22.9256;stroke-dasharray:19.9543,14.253;}
	.st7{fill:none;stroke:#00AA00;stroke-miterlimit:22.9256;stroke-dasharray:19.6813,14.058;}
	.st8{fill:none;stroke:#00AA00;stroke-miterlimit:22.9256;stroke-dasharray:19.7876,14.1339;}
	.st9{fill:none;stroke:#00AA00;stroke-miterlimit:22.9256;stroke-dasharray:19.9897,14.2784;}
	.st10{fill:none;stroke:#00AA00;stroke-miterlimit:22.9256;stroke-dasharray:19.902,14.2157;}
</style>
<path id="trim_path_2" class="st0" d="M2739.3,3288.1h4.9v5l2698.1,0.1c-286.8-245.7-972.1-1002-972.1-1002
	c-189.1-208.9-492.3-557.9-736.1-866c-267.8-338.4-457-627.5-457-627.5h-1067l-221,303.6c-385.6,536.3-1120.3,1368-1120.3,1368
	l-398.6,401.6L44.9,3293l2694.4,0.1V3288.1L2739.3,3288.1z"/>
<polygon id="trim_path_1" class="st0" points="2744.3,3360.9 2744.3,3364.3 2739.7,3364.3 2739.7,3360.9 45.4,3360.9 
	45.4,4017.8 5442.7,4017.8 5442.7,3360.9 "/>
<polygon id="trim_x5F_path" class="st0" points="3309.1,840.8 2736,44.2 2178.6,840.8 "/>
<g id="safe_path_2">
	<g>
		<polyline class="st1" points="292.9,3196.5 282.9,3196.5 290,3189.6 		"/>
		<path class="st2" d="M300.1,3179.7l252.1-248.2l398.2-403.8l1.7-1.9c1.8-2.1,185.8-211.8,414.2-484.4
			c211.1-252,504.6-611,704.2-890.3L2253,898.8"/>
		<polyline class="st1" points="2257.1,893 2263,885 2272.9,885 		"/>
		<line class="st3" x1="2287.3" y1="885" x2="3214.3" y2="884.1"/>
		<path class="st1" d="M3221.5,884.1l9.9,0c1.8,2.6,3.6,5.4,5.5,8.2"/>
		<path class="st4" d="M3244.8,904c21.7,32.2,51.7,76.1,88.9,129.2c73.9,105.5,191,268.2,329.7,444.6
			c244.8,311.3,549,663.5,735.1,870.5c1.7,1.9,173.2,192.3,377.3,410.2c167,178.3,306.5,322.7,417.4,431.9"/>
		<path class="st1" d="M5198.2,3195.4c2.4,2.3,4.7,4.7,7.1,7l-9.9,0"/>
		<line class="st5" x1="5181.2" y1="3202.3" x2="299.9" y2="3196.5"/>
	</g>
</g>
<g id="safe_path_1">
	<g>
		<polyline class="st1" points="2346.4,749.4 2336.5,749.3 2342.3,741.3 		"/>
		<line class="st6" x1="2350.6" y1="729.7" x2="2726.4" y2="208.2"/>
		<polyline class="st1" points="2730.5,202.4 2736.4,194.3 2741.9,202.5 		"/>
		<line class="st7" x1="2749.9" y1="214.2" x2="3107.2" y2="737.9"/>
		<polyline class="st1" points="3111.1,743.7 3116.7,751.9 3106.8,751.9 		"/>
		<line class="st8" x1="3092.7" y1="751.8" x2="2353.5" y2="749.4"/>
	</g>
</g>
<g id="safe_path">
	<g>
		<polyline class="st1" points="161.1,3929.2 151.2,3929.2 151.2,3919.3 		"/>
		<line class="st9" x1="151.2" y1="3905" x2="151.2" y2="3466.7"/>
		<polyline class="st1" points="151.2,3459.5 151.2,3449.6 161.1,3449.6 		"/>
		<line class="st10" x1="175.3" y1="3449.6" x2="5320" y2="3449.6"/>
		<polyline class="st1" points="5327.1,3449.6 5337,3449.6 5337,3459.5 		"/>
		<line class="st9" x1="5337" y1="3473.8" x2="5337" y2="3912.1"/>
		<polyline class="st1" points="5337,3919.3 5337,3929.2 5327.1,3929.2 		"/>
		<line class="st10" x1="5312.9" y1="3929.2" x2="168.2" y2="3929.2"/>
	</g>
</g>
</svg>
