<?xml version="1.0" encoding="utf-8"?>
<!-- Generator: Adobe Illustrator 24.2.1, SVG Export Plug-In . SVG Version: 6.00 Build 0)  -->
<!DOCTYPE svg PUBLIC "-//W3C//DTD SVG 1.1//EN" "http://www.w3.org/Graphics/SVG/1.1/DTD/svg11.dtd" [
	<!ENTITY ns_extend "http://ns.adobe.com/Extensibility/1.0/">
	<!ENTITY ns_ai "http://ns.adobe.com/AdobeIllustrator/10.0/">
	<!ENTITY ns_graphs "http://ns.adobe.com/Graphs/1.0/">
	<!ENTITY ns_vars "http://ns.adobe.com/Variables/1.0/">
	<!ENTITY ns_imrep "http://ns.adobe.com/ImageReplacement/1.0/">
	<!ENTITY ns_sfw "http://ns.adobe.com/SaveForWeb/1.0/">
	<!ENTITY ns_custom "http://ns.adobe.com/GenericCustomNamespace/1.0/">
	<!ENTITY ns_adobe_xpath "http://ns.adobe.com/XPath/1.0/">
]>
<svg version="1.1" id="uv_region" xmlns:x="&ns_extend;" xmlns:i="&ns_ai;" xmlns:graph="&ns_graphs;"
	 xmlns="http://www.w3.org/2000/svg" xmlns:xlink="http://www.w3.org/1999/xlink" x="0px" y="0px" viewBox="0 0 8690.2 6308.8"
	 style="enable-background:new 0 0 8690.2 6308.8;" xml:space="preserve">
<style type="text/css">
	.st0{fill:none;stroke:#040000;stroke-miterlimit:9.25;}
</style>
<switch>
	<g i:extraneous="self">
		<path id="uv_region_3_" class="st0" d="M36.2,5223.6v1048.9H8654V5223.6c-458-392.3-1552.9-1599.5-1552.9-1599.5
			c-301.9-333.6-786-890.8-1175.3-1382.7c-427.6-540.3-729.7-1001.9-729.7-1001.9L4332.4,36.3l-839.9,1203.3l-352.9,484.7
			c-615.7,856.4-1788.7,2184.2-1788.7,2184.2l-636.2,641.1L36.2,5223.6z"/>
	</g>
	<g i:extraneous="self">
		<g id="safe_path_9_">
			<g id="safe_path_7_">
				<g>
					<polyline class="st0" points="427.5,5067.9 417.5,5067.9 424.6,5061 					"/>
					<path class="st1" d="M434.7,5051l412.6-406.2l635.7-644.7l2.7-3.1c2.9-3.3,296.6-338.2,661.2-773.4
						c337-402.3,805.6-975.4,1124.2-1421.4l297.5-410.7"/>
					<polyline class="st0" points="3572.7,1385.7 3578.6,1377.7 3588.5,1377.7 					"/>
					<line class="st2" x1="3602.8" y1="1377.7" x2="5107.5" y2="1376.2"/>
					<path class="st0" d="M5114.7,1376.2l9.9,0c1.8,2.7,3.6,5.4,5.5,8.2"/>
					<path class="st3" d="M5138.1,1396.2c35.1,52.1,85.8,126.6,150,218.2c117.9,168.3,305,428.1,526.4,709.8
						c390.8,497,876.4,1059.3,1173.5,1389.7c2.8,3.1,276.5,307,602.3,654.9c270.2,288.5,495.4,521.4,673.5,696.6"/>
					<path class="st0" d="M8268.8,5070.3c2.4,2.3,4.7,4.6,7.1,7l-9.9,0"/>
					<line class="st4" x1="8251.8" y1="5077.2" x2="434.6" y2="5067.9"/>
				</g>
			</g>
		</g>
		<g id="safe_path">
			<g id="safe_path_8_">
				<g>
					<polyline class="st0" points="217.7,6130.1 207.7,6130.1 207.7,6120.2 					"/>
					<line class="st5" x1="207.7" y1="6106.3" x2="207.7" y2="5381.3"/>
					<polyline class="st0" points="207.7,5374.4 207.7,5364.5 217.7,5364.5 					"/>
					<line class="st6" x1="231.9" y1="5364.5" x2="8469.7" y2="5364.5"/>
					<polyline class="st0" points="8476.8,5364.5 8486.7,5364.5 8486.7,5374.4 					"/>
					<line class="st5" x1="8486.7" y1="5388.2" x2="8486.7" y2="6113.3"/>
					<polyline class="st0" points="8486.7,6120.2 8486.7,6130.1 8476.8,6130.1 					"/>
					<line class="st6" x1="8462.6" y1="6130.1" x2="224.8" y2="6130.1"/>
				</g>
			</g>
		</g>
		<g id="safe_path_1_">
			<g id="safe_path_6_">
				<g>
					<polyline class="st0" points="3705.8,1161.1 3695.9,1161.1 3701.7,1153 					"/>
					<line class="st7" x1="3710" y1="1141.5" x2="4324.3" y2="288.9"/>
					<polyline class="st0" points="4328.5,283.1 4334.3,275.1 4339.9,283.3 					"/>
					<line class="st8" x1="4347.8" y1="294.9" x2="4932" y2="1151.2"/>
					<polyline class="st0" points="4935.9,1157 4941.5,1165.2 4931.6,1165.2 					"/>
					<line class="st9" x1="4917.6" y1="1165.2" x2="3712.8" y2="1161.2"/>
				</g>
			</g>
		</g>
	</g>
</switch>
</svg>
