<?xml version="1.0" encoding="utf-8"?>
<!-- Generator: Adobe Illustrator 24.2.1, SVG Export Plug-In . SVG Version: 6.00 Build 0)  -->
<svg version="1.1" id="uv_region" xmlns="http://www.w3.org/2000/svg" xmlns:xlink="http://www.w3.org/1999/xlink" x="0px"
	 y="0px" viewBox="0 0 3899.8 12545.4" style="enable-background:new 0 0 3899.8 12545.4;" xml:space="preserve">
<style type="text/css">
	.st0{fill:none;stroke:#000000;stroke-miterlimit:10;}
	.st1{fill:none;stroke:#00AA00;stroke-miterlimit:10;stroke-dasharray:17.828,12.7346;}
	.st2{fill:none;stroke:#0000FF;stroke-miterlimit:10;}
	.st3{fill:none;stroke:#0000FF;stroke-miterlimit:10;stroke-dasharray:17.6696,12.6214;}
	.st4{fill:none;stroke:#0000FF;stroke-miterlimit:10;stroke-dasharray:17.6954,12.6399;}
	.st5{fill:none;stroke:#00AA00;stroke-miterlimit:10;}
	.st6{fill:none;stroke:#00AA00;stroke-miterlimit:10;stroke-dasharray:17.6155,12.5828;}
	.st7{fill:none;stroke:#00AA00;stroke-miterlimit:10;stroke-dasharray:18.2438,13.0316;}
	.st8{fill:none;stroke:#00AA00;stroke-miterlimit:10;stroke-dasharray:17.8334,12.7384;}
	.st9{fill:none;stroke:#0000FF;stroke-miterlimit:10;stroke-dasharray:17.5866,12.5621;}
	.st10{fill:none;stroke:#0000FF;stroke-miterlimit:10;stroke-dasharray:17.7364,12.6691;}
	.st11{fill:none;stroke:#00AA00;stroke-miterlimit:10;stroke-dasharray:17.6267,12.5908;}
	.st12{fill:none;stroke:#00AA00;stroke-miterlimit:10;stroke-dasharray:17.5862,12.5619;}
	.st13{fill:none;stroke:#00AA00;stroke-miterlimit:10;stroke-dasharray:17.6327,12.5951;}
	.st14{fill:none;stroke:#00AA00;stroke-miterlimit:10;stroke-dasharray:17.7241,12.6604;}
	.st15{fill:none;stroke:#00AA00;stroke-miterlimit:10;stroke-dasharray:17.891,12.7796;}
	.st16{fill:none;stroke:#0000FF;stroke-miterlimit:10;stroke-dasharray:17.8418,12.7445;}
	.st17{fill:none;stroke:#00AA00;stroke-miterlimit:10;stroke-dasharray:17.8691,12.7639;}
	.st18{fill:none;stroke:#00AA00;stroke-miterlimit:10;stroke-dasharray:17.6921,12.6375;}
	.st19{fill:none;stroke:#00AA00;stroke-miterlimit:10;stroke-dasharray:17.7386,12.6707;}
	.st20{fill:none;stroke:#00AA00;stroke-miterlimit:10;stroke-dasharray:17.8517,12.7515;}
</style>
<path id="trim_path" class="st0" d="M688.9,12508.9c-14.6,0-144.4-3-231-105.1c-13.7-12.2-76.7-75.2-89.6-214.5l-0.1-1.3
	l-0.5-579.1l1-841.4v-1840L347.4,8735L36.5,6605.8l92.3-2847c0.2-4.9,15.6-494.4,27.5-1081.3c11-541.5,21-1278.9,6.9-1716.9l0-0.5
	V538.3l0-0.4c0.1-5.2,4.2-127.8,81.9-251.5c45.8-72.9,107.7-131,183.9-172.6C522.9,62.5,639,36.5,773.8,36.5
	c31.2,0,63.9,1.4,97.2,4.2l422.4-3.2l2.4,0.4c4.5,0.8,110.4,19.8,220.3,91.4c65,42.4,117.9,94.4,157.2,154.7
	c49.2,75.5,76.8,163.8,82.1,262.5l0,0.7l4.4,2007.8l91.7,3211l27.5,837.3l-0.2,2.1c-0.3,2.5-27.9,177.7-55.1,344.9
	c-26.7,163.7-267.1,1900.1-276.6,1968.8l2.4,3064.9c0.1,4.8,1.3,53.9,1.9,105.1c1.2,102.3-0.9,120.8-2.3,127.6
	c-1.3,11.3-9.9,71.9-47.4,135c-24.1,40.6-55.3,73.9-92.7,99.1c-46.3,31.3-101.9,49.8-165.3,54.9l-1,0.1
	C1242.7,12505.9,689.3,12508.9,688.9,12508.9z"/>
<path id="trim_path_1_" class="st0" d="M2673.2,12508.9c-14.6,0-144.4-3-231-105.1c-13.7-12.2-76.6-75.2-89.6-214.5l-0.1-1.3
	l-0.5-579.1l1-841.4v-1840l-21.4-192.6l-310.9-2129.1l92.3-2847c0.2-4.9,15.6-494.4,27.5-1081.3c11-541.5,21-1278.9,6.9-1716.9
	l0-0.5V538.3l0-0.4c0.1-5.2,4.2-127.8,81.9-251.5c45.8-72.9,107.7-131,183.9-172.6c94.1-51.4,210.1-77.4,344.9-77.4
	c31.2,0,63.9,1.4,97.2,4.2l422.4-3.2l2.4,0.4c4.5,0.8,110.4,19.8,220.3,91.4c65,42.4,117.9,94.4,157.2,154.7
	c49.2,75.5,76.8,163.8,82.1,262.5l0,0.7l4.4,2007.8l91.7,3211l27.5,837.3l-0.2,2.1c-0.3,2.5-27.9,177.7-55.1,344.9
	c-26.7,163.7-266.2,1895.4-275.6,1963.7l1.4,3070c0.1,4.8,1.3,53.9,1.9,105.1c1.2,102.3-0.9,120.8-2.3,127.6
	c-1.3,11.3-9.9,71.9-47.4,135c-24.2,40.6-55.3,73.9-92.7,99.1c-46.3,31.3-101.9,49.7-165.3,54.9l-1,0.1
	C3227,12505.9,2673.5,12508.9,2673.2,12508.9z"/>
<g id="safe_path_2_">
	<path class="st1" d="M678.9,12308.7c-17.3-0.6-65.7-8.5-91.6-38.2l-11.3-13l-6.5-4.9c-5.1-6.6-20.6-30.1-26.5-79.2l-0.5-565.9
		l1.1-837V8929.2l-23.9-205.9L198.3,6619.5l95.4-2814.6c0.7-20.2,16.4-502.2,28.6-1077.8c11.4-539.7,21.9-1275.1,7.2-1715.5V600.2
		c1.1-13.1,9.2-85.5,56.7-155.3c29.4-43.2,69.2-77.7,118.2-102.7c68.3-34.8,156.5-52.4,262-52.4c27.5,0,56.4,1.2,86.1,3.6l7.6,0.6
		l426.9-3.1c24.8,6.1,87.6,24.2,148.8,63.1c43.2,27.5,77.7,60.3,102.5,97.4c29.8,44.5,46.9,97.8,50.9,158.4l4.6,1994.3l95.6,3197.9
		l28.1,748.2c-6.3,52.6-30.6,250.9-54.5,391.1c-28.5,167.1-278.2,1891.8-288.8,1965.1l-1.7,11.7l2.5,3064.8l0.1,2
		c2.3,87.2,2.8,171.7,1.8,195.9l-0.5,2l-0.5,6.7c-1.2,6.5-6.8,33.2-23.5,58.7c-9.8,14.9-21.9,26.9-36,35.7
		c-18.5,11.5-42.5,18.8-71.3,21.7L678.9,12308.7z"/>
</g>
<g id="fold_line_2_">
	<g>
		<line class="st2" x1="1564.6" y1="8783.3" x2="1555.6" y2="8783.3"/>
		<line class="st3" x1="1543" y1="8783.3" x2="368" y2="8783.3"/>
		<line class="st2" x1="361.7" y1="8783.3" x2="352.8" y2="8783.3"/>
	</g>
</g>
<g id="fold_line_4_">
	<g>
		<line class="st2" x1="1867.9" y1="6329.6" x2="1859" y2="6329.6"/>
		<line class="st4" x1="1846.3" y1="6329.6" x2="62.9" y2="6329.6"/>
		<line class="st2" x1="56.5" y1="6329.6" x2="47.6" y2="6329.6"/>
	</g>
</g>
<g id="safe_path_1_">
	<g>
		<polyline class="st5" points="1456.3,879.9 1456.3,888.8 1447.4,888.8 		"/>
		<line class="st6" x1="1434.8" y1="888.8" x2="474.7" y2="888.8"/>
		<polyline class="st5" points="468.5,888.8 459.5,888.8 459.5,879.9 		"/>
		<line class="st7" x1="459.5" y1="866.9" x2="459.5" y2="466.8"/>
		<polyline class="st5" points="459.5,460.3 459.5,451.4 468.5,451.4 		"/>
		<line class="st6" x1="481" y1="451.4" x2="1441.1" y2="451.4"/>
		<polyline class="st5" points="1447.4,451.4 1456.3,451.4 1456.3,460.3 		"/>
		<line class="st7" x1="1456.3" y1="473.3" x2="1456.3" y2="873.4"/>
	</g>
</g>
<g id="safe_path_3_">
	<path class="st8" d="M2661.7,12308.7c-4.9-0.2-61.8-3.8-92-38.2l-11.4-13l-6.3-4.8c-5.3-6.9-20.9-30.6-26.8-79.4l-0.5-565.8
		l1.1-837V8929.2l-24-205.9l-322.6-2103.8L2275,3805c0.2-4.9,16.3-492.9,28.7-1077.8c16.7-784.9,19.1-1362,7.2-1715.5V600.2
		c1.1-12.5,9.5-88.9,60.4-160.3c29.9-41.9,69.9-75.4,119-99.6c68.1-33.5,155.3-50.5,259.2-50.5c27.6,0,56.7,1.2,86.5,3.6l7.6,0.6
		l428.7-3.1c26.2,6.4,90.6,25,153.4,65.8c93.6,60.9,142.7,143.7,149.9,253.1l4.6,1994.4l95.9,3197.3l28.2,748.8
		c-6.2,51.1-30.7,250.8-54.7,391.1c-28.7,167.6-278.3,1886.9-288.9,1960l-1.7,11.6l1.4,3069.9l0.1,2.1c2,74.6,3.1,166.6,1.8,196.1
		l-0.1,0.3l-0.8,7.7c-0.8,4.9-6.5,35-26.1,62.8c-14.2,20.2-40.5,47.4-105.3,53.8L2661.7,12308.7z"/>
</g>
<g id="fold_line">
	<g>
		<line class="st2" x1="3439.4" y1="11267.8" x2="3430.5" y2="11267.8"/>
		<line class="st9" x1="3418" y1="11267.8" x2="2459.5" y2="11267.8"/>
		<line class="st2" x1="2453.2" y1="11267.8" x2="2444.3" y2="11267.8"/>
	</g>
</g>
<g id="fold_line_1_">
	<g>
		<line class="st2" x1="3553.3" y1="8783.3" x2="3544.4" y2="8783.3"/>
		<line class="st10" x1="3531.7" y1="8783.3" x2="2352.3" y2="8783.3"/>
		<line class="st2" x1="2345.9" y1="8783.3" x2="2337" y2="8783.3"/>
	</g>
</g>
<g id="safe_path_5_">
	<g>
		<polyline class="st5" points="2397.8,9799.2 2397.8,9790.3 2406.8,9790.3 		"/>
		<line class="st11" x1="2419.3" y1="9790.3" x2="3470.7" y2="9790.3"/>
		<polyline class="st5" points="3477,9790.3 3485.9,9790.3 3485.9,9799.2 		"/>
		<line class="st12" x1="3485.9" y1="9811.8" x2="3485.9" y2="10197.4"/>
		<polyline class="st5" points="3485.9,10203.7 3485.9,10212.6 3477,10212.6 		"/>
		<line class="st11" x1="3464.4" y1="10212.6" x2="2413" y2="10212.6"/>
		<polyline class="st5" points="2406.8,10212.6 2397.8,10212.6 2397.8,10203.7 		"/>
		<line class="st12" x1="2397.8" y1="10191.1" x2="2397.8" y2="9805.5"/>
	</g>
</g>
<g id="safe_path_6_">
	<g>
		<polyline class="st5" points="2397.7,10650.2 2397.7,10641.3 2406.6,10641.3 		"/>
		<line class="st13" x1="2419.2" y1="10641.3" x2="3470.8" y2="10641.3"/>
		<polyline class="st5" points="3477.1,10641.3 3486.1,10641.3 3486.1,10650.2 		"/>
		<line class="st12" x1="3486.1" y1="10662.8" x2="3486.1" y2="11048.4"/>
		<polyline class="st5" points="3486.1,11054.7 3486.1,11063.6 3477.1,11063.6 		"/>
		<line class="st13" x1="3464.5" y1="11063.6" x2="2412.9" y2="11063.6"/>
		<polyline class="st5" points="2406.6,11063.6 2397.7,11063.6 2397.7,11054.7 		"/>
		<line class="st12" x1="2397.7" y1="11042.1" x2="2397.7" y2="10656.5"/>
	</g>
</g>
<g id="safe_path_7_">
	<g>
		<polyline class="st5" points="3439.4,12117.7 3439.4,12126.6 3430.5,12126.6 		"/>
		<line class="st14" x1="3417.9" y1="12126.6" x2="2451.9" y2="12126.6"/>
		<polyline class="st5" points="2445.6,12126.6 2436.6,12126.6 2436.6,12117.7 		"/>
		<line class="st15" x1="2436.6" y1="12104.9" x2="2436.6" y2="11467.2"/>
		<polyline class="st5" points="2436.6,11460.8 2436.6,11451.9 2445.6,11451.9 		"/>
		<line class="st14" x1="2458.2" y1="11451.9" x2="3424.2" y2="11451.9"/>
		<polyline class="st5" points="3430.5,11451.9 3439.4,11451.9 3439.4,11460.8 		"/>
		<line class="st15" x1="3439.4" y1="11473.6" x2="3439.4" y2="12111.3"/>
	</g>
</g>
<g id="fold_line_3_">
	<g>
		<line class="st2" x1="3844.3" y1="6329.6" x2="3835.4" y2="6329.6"/>
		<line class="st16" x1="3822.6" y1="6329.6" x2="2055" y2="6329.6"/>
		<line class="st2" x1="2048.6" y1="6329.6" x2="2039.7" y2="6329.6"/>
	</g>
</g>
<g id="safe_path_4_">
	<g>
		<polyline class="st5" points="3294.3,9537.8 3294.3,9546.7 3285.3,9546.7 		"/>
		<line class="st17" x1="3272.6" y1="9546.7" x2="2605" y2="9546.7"/>
		<polyline class="st5" points="2598.7,9546.7 2589.7,9546.7 2589.7,9537.8 		"/>
		<line class="st18" x1="2589.7" y1="9525.2" x2="2589.7" y2="9046.2"/>
		<polyline class="st5" points="2589.7,9039.9 2589.7,9031 2598.7,9031 		"/>
		<line class="st17" x1="2611.4" y1="9031" x2="3279" y2="9031"/>
		<polyline class="st5" points="3285.3,9031 3294.3,9031 3294.3,9039.9 		"/>
		<line class="st18" x1="3294.3" y1="9052.5" x2="3294.3" y2="9531.5"/>
	</g>
</g>
<g id="safe_path">
	<g>
		<polyline class="st5" points="1855,2376.7 1855,2385.6 1846.1,2385.6 		"/>
		<line class="st19" x1="1833.5" y1="2385.6" x2="76" y2="2385.6"/>
		<polyline class="st5" points="69.7,2385.6 60.8,2385.6 60.8,2376.7 		"/>
		<line class="st20" x1="60.8" y1="2364" x2="60.8" y2="993.2"/>
		<polyline class="st5" points="60.8,986.8 60.8,977.9 69.7,977.9 		"/>
		<line class="st19" x1="82.4" y1="977.9" x2="1839.8" y2="977.9"/>
		<polyline class="st5" points="1846.1,977.9 1855,977.9 1855,986.8 		"/>
		<line class="st20" x1="1855" y1="999.6" x2="1855" y2="2370.3"/>
	</g>
</g>
</svg>
