<svg id="uv_region" xmlns="http://www.w3.org/2000/svg" viewBox="0 0 2527.85 8173.4"><defs><style>.cls-1{fill:none;stroke:#000;stroke-miterlimit:6.53;stroke-width:0.65px;}</style></defs><path id="uv_region" class="cls-1" d="M440.51,8158.9c-9.53,0-94.29-2-150.84-68.63-8.95-8-50.08-49.11-58.51-140.07l-.06-.85-.33-378.14.65-549.43V5820.29l-13.91-125.71L14.5,4304.24,74.77,2445.18c.13-3.2,10.19-322.83,18-706.07C99.91,1385.51,106.44,904,97.23,618V342c.07-3.39,2.75-83.45,53.48-164.22A322.72,322.72,0,0,1,270.8,65C332.11,31.54,407.93,14.57,496,14.57c20.37,0,41.72.91,63.47,2.74l275.82-2.09,1.57.26c2.94.52,72.09,12.93,143.85,59.68,42.45,27.69,77,61.64,102.65,101,32.13,49.3,50.15,107,53.61,171.41v.46l2.87,1311.07,59.88,2096.74,18,546.75-.13,1.37c-.2,1.63-18.22,116-36,225.22-17.43,106.89-174.41,1240.74-180.62,1285.6l1.57,2001.34c.07,3.14.85,35.2,1.24,68.63.79,66.8-.59,78.88-1.5,83.32-.85,7.38-6.46,46.95-31,88.16-15.74,26.51-36.11,48.25-60.53,64.71-30.24,20.44-66.54,32.52-107.94,35.85l-.66.06C802.13,8156.94,440.77,8158.9,440.51,8158.9Z"/><path id="uv_region-2" data-name="trim_path" class="cls-1" d="M1736.23,8158.9c-9.53,0-94.29-2-150.84-68.63-8.94-8-50-49.11-58.5-140.07l-.07-.85-.33-378.14.66-549.43V5820.29l-14-125.77-203-1390.28,60.27-1859.06c.13-3.19,10.19-322.83,18-706.07,7.18-353.59,13.71-835.11,4.5-1121.12V342c.07-3.39,2.75-83.45,53.48-164.22A322.72,322.72,0,0,1,1566.46,65c61.44-33.56,137.19-50.54,225.21-50.54,20.38,0,41.73.91,63.47,2.74L2131,15.15l1.56.26c2.94.53,72.09,12.93,143.86,59.69,42.44,27.68,77,61.64,102.65,101,32.12,49.31,50.14,107,53.61,171.41V348l2.87,1311.07L2495.4,3755.8l18,546.74-.14,1.38c-.19,1.63-18.21,116-36,225.21-17.43,106.89-173.82,1237.67-180,1282.27l.92,2004.68c.06,3.13.84,35.19,1.24,68.63.78,66.8-.59,78.88-1.51,83.32-.84,7.38-6.46,46.95-30.95,88.15-15.8,26.51-36.11,48.26-60.53,64.71-30.23,20.44-66.54,32.46-107.94,35.85l-.65.07C2097.86,8156.94,1736.43,8158.9,1736.23,8158.9Z"/></svg>